<svg xmlns="http://www.w3.org/2000/svg" xmlns:xlink="http://www.w3.org/1999/xlink" version="1.1" x="0px" y="0px" viewBox="0 0 100 125" enable-background="new 0 0 100 100" xml:space="preserve"><path fill="#000000" d="M85.434,5H14.566c-5.149,0-9.324,4.175-9.324,9.324v71.352c0,5.148,4.175,9.324,9.324,9.324h70.867  c5.149,0,9.324-4.176,9.324-9.324V14.324C94.758,9.175,90.583,5,85.434,5z M41.501,38.479l-0.16,0.16l-0.184,0.132  c-1.031,0.742-2.207,1.605-3.595,2.642c-1.519,1.132-2.852,2.13-4.077,3.049c-1.417,1.062-2.783,2.081-4.062,3.03  c-1.293,0.96-2.515,1.854-3.632,2.659l-0.219,0.157l-0.244,0.113c-0.926,0.426-1.86,0.643-2.78,0.643  c-1.448,0-2.739-0.501-3.731-1.449c-1.028-0.979-1.573-2.269-1.573-3.727c0-1.292,0.421-2.52,1.25-3.649l0.245-0.333l0.331-0.249  c0.857-0.644,1.871-1.396,3.01-2.233c1.155-0.851,2.302-1.707,3.406-2.546c1.205-0.914,2.374-1.788,3.474-2.598  c0.016-0.012,0.031-0.022,0.046-0.034c-1.079-0.83-2.211-1.711-3.364-2.618c-1.185-0.93-2.346-1.833-3.449-2.683  c-1.134-0.872-2.09-1.627-2.837-2.244l-0.215-0.177l-0.176-0.216c-0.971-1.193-1.463-2.501-1.463-3.887  c0-1.432,0.527-2.716,1.526-3.715c0.999-0.998,2.306-1.526,3.778-1.526c0.736,0,1.527,0.166,2.417,0.508l0.229,0.087l0.21,0.127  c0.298,0.179,0.717,0.479,1.789,1.367c0.719,0.596,1.605,1.295,2.641,2.081c1.077,0.819,2.23,1.721,3.43,2.679  c1.164,0.932,2.281,1.804,3.321,2.593c1.092,0.832,2.029,1.56,2.786,2.164c0.748,0.6,1.229,0.983,1.441,1.153  c1.882,1.487,2.278,3.235,2.278,4.439C43.349,35.406,43.028,36.951,41.501,38.479z M77.405,61.27  c-0.808,0.888-1.924,1.512-3.32,1.862l-0.335,0.085H50.133l-0.127-0.012c-2.116-0.194-3.331-1.15-3.977-1.918  c-0.871-1.039-1.331-2.25-1.331-3.504c0-1.364,0.524-2.634,1.517-3.671c0.974-1.018,2.318-1.607,3.998-1.752l0.119-0.011h23.626  l0.351,0.093c1.436,0.376,2.554,1.09,3.326,2.119c0.756,1.007,1.139,2.091,1.139,3.222C78.773,59.077,78.3,60.282,77.405,61.27z"/><text x="0" y="115" fill="#000000" font-size="5px" font-weight="bold" font-family="'Helvetica Neue', Helvetica, Arial-Unicode, Arial, Sans-serif">Created by Tyrus</text><text x="0" y="120" fill="#000000" font-size="5px" font-weight="bold" font-family="'Helvetica Neue', Helvetica, Arial-Unicode, Arial, Sans-serif">from the Noun Project</text></svg>